<svg width="1215" height="1286" viewBox="0 0 1215 1286" fill="none" xmlns="http://www.w3.org/2000/svg">
<path d="M1198.99 321.314C1127.55 197.558 1016.9 101.147 884.544 47.3246C752.185 -6.49829 605.665 -14.6629 468.147 24.1215C330.63 62.9058 209.96 146.426 125.216 261.479C40.4724 376.532 -3.51116 516.553 0.219146 659.405C3.94945 802.257 55.1808 939.791 145.814 1050.26C236.447 1160.73 361.311 1237.84 500.665 1269.39C640.02 1300.95 785.914 1285.14 915.283 1224.48C1044.65 1163.83 1150.12 1061.77 1215 934.453L933.695 791.052C900.695 855.806 847.055 907.712 781.257 938.564C715.459 969.415 641.256 977.453 570.38 961.405C499.503 945.357 435.997 906.14 389.9 849.953C343.804 793.767 317.747 723.816 315.85 651.161C313.952 578.505 336.323 507.29 379.424 448.773C422.525 390.256 483.899 347.777 553.841 328.051C623.783 308.325 698.305 312.478 765.623 339.853L619.11 651.161L925.552 479.205L1198.99 321.314Z" fill="url(#paint0_linear_1_188)"/>
<defs>
<linearGradient id="paint0_linear_1_188" x1="1237.07" y1="-66.1934" x2="186.256" y2="1172.24" gradientUnits="userSpaceOnUse">
<stop stop-color="#F709FC"/>
<stop offset="0.460021" stop-color="#7B30CB"/>
<stop offset="1" stop-color="#0691F6"/>
</linearGradient>
</defs>
</svg>
